<svg width="32" height="32" viewBox="0 0 194 194" fill="none" xmlns="http://www.w3.org/2000/svg">
<path d="M118.293 166L97 187.293L75.707 166L97 144.707L118.293 166ZM96.293 144L75 165.293L53.707 144L75 122.707L96.293 144ZM140.293 144L119 165.293L97.707 144L119 122.707L140.293 144ZM74.293 122L53 143.293L31.707 122L53 100.707L74.293 122ZM162.293 122L141 143.293L119.707 122L141 100.707L162.293 122ZM52.293 100L31 121.293L9.70703 100L31 78.707L52.293 100ZM184.293 100L163 121.293L141.707 100L163 78.707L184.293 100ZM74.293 78L53 99.293L31.707 78L53 56.707L74.293 78ZM118.293 78L97 99.293L75.707 78L97 56.707L118.293 78ZM162.293 78L141 99.293L119.707 78L141 56.707L162.293 78ZM96.293 56L75 77.293L53.707 56L75 34.707L96.293 56ZM140.293 56L119 77.293L97.707 56L119 34.707L140.293 56Z" fill="#0074CE" stroke="#0074CE"/>
</svg>
