<svg width="747" height="204" viewBox="0 0 747 204" fill="none" xmlns="http://www.w3.org/2000/svg">
<path d="M118.293 166L97 187.293L75.707 166L97 144.707L118.293 166ZM96.293 144L75 165.293L53.707 144L75 122.707L96.293 144ZM140.293 144L119 165.293L97.707 144L119 122.707L140.293 144ZM74.293 122L53 143.293L31.707 122L53 100.707L74.293 122ZM162.293 122L141 143.293L119.707 122L141 100.707L162.293 122ZM52.293 100L31 121.293L9.70703 100L31 78.707L52.293 100ZM184.293 100L163 121.293L141.707 100L163 78.707L184.293 100ZM74.293 78L53 99.293L31.707 78L53 56.707L74.293 78ZM118.293 78L97 99.293L75.707 78L97 56.707L118.293 78ZM162.293 78L141 99.293L119.707 78L141 56.707L162.293 78ZM96.293 56L75 77.293L53.707 56L75 34.707L96.293 56ZM140.293 56L119 77.293L97.707 56L119 34.707L140.293 56Z" fill="#0074CE" stroke="#0074CE"/>
<mask id="path-2-outside-1_1402_8" maskUnits="userSpaceOnUse" x="216" y="53" width="520" height="102" fill="black">
<rect fill="white" x="216" y="53" width="520" height="102"/>
<path d="M301.227 91.5H281.318C280.955 88.9242 280.212 86.6364 279.091 84.6364C277.97 82.6061 276.53 80.8788 274.773 79.4545C273.015 78.0303 270.985 76.9394 268.682 76.1818C266.409 75.4242 263.939 75.0455 261.273 75.0455C256.455 75.0455 252.258 76.2424 248.682 78.6364C245.106 81 242.333 84.4545 240.364 89C238.394 93.5151 237.409 99 237.409 105.455C237.409 112.091 238.394 117.667 240.364 122.182C242.364 126.697 245.152 130.106 248.727 132.409C252.303 134.712 256.439 135.864 261.136 135.864C263.773 135.864 266.212 135.515 268.455 134.818C270.727 134.121 272.742 133.106 274.5 131.773C276.258 130.409 277.712 128.758 278.864 126.818C280.045 124.879 280.864 122.667 281.318 120.182L301.227 120.273C300.712 124.545 299.424 128.667 297.364 132.636C295.333 136.576 292.591 140.106 289.136 143.227C285.712 146.318 281.621 148.773 276.864 150.591C272.136 152.379 266.788 153.273 260.818 153.273C252.515 153.273 245.091 151.394 238.545 147.636C232.03 143.879 226.879 138.439 223.091 131.318C219.333 124.197 217.455 115.576 217.455 105.455C217.455 95.303 219.364 86.6667 223.182 79.5455C227 72.4242 232.182 67 238.727 63.2727C245.273 59.5151 252.636 57.6364 260.818 57.6364C266.212 57.6364 271.212 58.3939 275.818 59.9091C280.455 61.4242 284.561 63.6364 288.136 66.5454C291.712 69.4242 294.621 72.9545 296.864 77.1364C299.136 81.3182 300.591 86.1061 301.227 91.5ZM334.341 111.636V152H314.977V58.9091H333.795V94.5H334.614C336.189 90.3788 338.735 87.1515 342.25 84.8182C345.765 82.4545 350.174 81.2727 355.477 81.2727C360.326 81.2727 364.553 82.3333 368.159 84.4545C371.795 86.5455 374.614 89.5606 376.614 93.5C378.644 97.4091 379.644 102.091 379.614 107.545V152H360.25V111C360.28 106.697 359.189 103.348 356.977 100.955C354.795 98.5606 351.735 97.3636 347.795 97.3636C345.159 97.3636 342.826 97.9242 340.795 99.0455C338.795 100.167 337.22 101.803 336.068 103.955C334.947 106.076 334.371 108.636 334.341 111.636ZM426.67 153.364C419.489 153.364 413.307 151.909 408.125 149C402.973 146.061 399.004 141.909 396.216 136.545C393.428 131.152 392.034 124.773 392.034 117.409C392.034 110.227 393.428 103.924 396.216 98.5C399.004 93.0758 402.928 88.8485 407.989 85.8182C413.08 82.7879 419.049 81.2727 425.898 81.2727C430.504 81.2727 434.792 82.0152 438.761 83.5C442.761 84.9545 446.246 87.1515 449.216 90.0909C452.216 93.0303 454.549 96.7273 456.216 101.182C457.883 105.606 458.716 110.788 458.716 116.727V122.045H399.761V110.045H440.489C440.489 107.258 439.883 104.788 438.67 102.636C437.458 100.485 435.777 98.803 433.625 97.5909C431.504 96.3485 429.034 95.7273 426.216 95.7273C423.277 95.7273 420.67 96.4091 418.398 97.7727C416.155 99.1061 414.398 100.909 413.125 103.182C411.852 105.424 411.201 107.924 411.17 110.682V122.091C411.17 125.545 411.807 128.53 413.08 131.045C414.383 133.561 416.216 135.5 418.58 136.864C420.943 138.227 423.746 138.909 426.989 138.909C429.14 138.909 431.11 138.606 432.898 138C434.686 137.394 436.216 136.485 437.489 135.273C438.761 134.061 439.731 132.576 440.398 130.818L458.307 132C457.398 136.303 455.534 140.061 452.716 143.273C449.928 146.455 446.322 148.939 441.898 150.727C437.504 152.485 432.428 153.364 426.67 153.364ZM502.898 153.364C495.746 153.364 489.595 151.848 484.443 148.818C479.322 145.758 475.383 141.515 472.625 136.091C469.898 130.667 468.534 124.424 468.534 117.364C468.534 110.212 469.913 103.939 472.67 98.5455C475.458 93.1212 479.413 88.8939 484.534 85.8636C489.655 82.803 495.746 81.2727 502.807 81.2727C508.898 81.2727 514.231 82.3788 518.807 84.5909C523.383 86.803 527.004 89.9091 529.67 93.9091C532.337 97.9091 533.807 102.606 534.08 108H515.807C515.292 104.515 513.928 101.712 511.716 99.5909C509.534 97.4394 506.67 96.3636 503.125 96.3636C500.125 96.3636 497.504 97.1818 495.261 98.8182C493.049 100.424 491.322 102.773 490.08 105.864C488.837 108.955 488.216 112.697 488.216 117.091C488.216 121.545 488.822 125.333 490.034 128.455C491.277 131.576 493.019 133.955 495.261 135.591C497.504 137.227 500.125 138.045 503.125 138.045C505.337 138.045 507.322 137.591 509.08 136.682C510.867 135.773 512.337 134.455 513.489 132.727C514.67 130.97 515.443 128.864 515.807 126.409H534.08C533.777 131.742 532.322 136.439 529.716 140.5C527.14 144.53 523.58 147.682 519.034 149.955C514.489 152.227 509.11 153.364 502.898 153.364ZM564.023 131.909L564.068 108.682H566.886L589.25 82.1818H611.477L581.432 117.273H576.841L564.023 131.909ZM546.477 152V58.9091H565.841V152H546.477ZM590.114 152L569.568 121.591L582.477 107.909L612.795 152H590.114ZM658.523 82.1818V96.7273H615.432V82.1818H658.523ZM625.295 152V77.1364C625.295 72.0758 626.28 67.8788 628.25 64.5454C630.25 61.2121 632.977 58.7121 636.432 57.0454C639.886 55.3788 643.811 54.5454 648.205 54.5454C651.174 54.5454 653.886 54.7727 656.341 55.2273C658.826 55.6818 660.674 56.0909 661.886 56.4545L658.432 71C657.674 70.7576 656.735 70.5303 655.614 70.3182C654.523 70.1061 653.402 70 652.25 70C649.402 70 647.417 70.6667 646.295 72C645.174 73.303 644.614 75.1364 644.614 77.5V152H625.295ZM715.125 122.273V82.1818H734.489V152H715.898V139.318H715.17C713.595 143.409 710.973 146.697 707.307 149.182C703.67 151.667 699.231 152.909 693.989 152.909C689.322 152.909 685.216 151.848 681.67 149.727C678.125 147.606 675.352 144.591 673.352 140.682C671.383 136.773 670.383 132.091 670.352 126.636V82.1818H689.716V123.182C689.746 127.303 690.852 130.561 693.034 132.955C695.216 135.348 698.14 136.545 701.807 136.545C704.14 136.545 706.322 136.015 708.352 134.955C710.383 133.864 712.019 132.258 713.261 130.136C714.534 128.015 715.155 125.394 715.125 122.273Z"/>
</mask>
<path d="M301.227 91.5H281.318C280.955 88.9242 280.212 86.6364 279.091 84.6364C277.97 82.6061 276.53 80.8788 274.773 79.4545C273.015 78.0303 270.985 76.9394 268.682 76.1818C266.409 75.4242 263.939 75.0455 261.273 75.0455C256.455 75.0455 252.258 76.2424 248.682 78.6364C245.106 81 242.333 84.4545 240.364 89C238.394 93.5151 237.409 99 237.409 105.455C237.409 112.091 238.394 117.667 240.364 122.182C242.364 126.697 245.152 130.106 248.727 132.409C252.303 134.712 256.439 135.864 261.136 135.864C263.773 135.864 266.212 135.515 268.455 134.818C270.727 134.121 272.742 133.106 274.5 131.773C276.258 130.409 277.712 128.758 278.864 126.818C280.045 124.879 280.864 122.667 281.318 120.182L301.227 120.273C300.712 124.545 299.424 128.667 297.364 132.636C295.333 136.576 292.591 140.106 289.136 143.227C285.712 146.318 281.621 148.773 276.864 150.591C272.136 152.379 266.788 153.273 260.818 153.273C252.515 153.273 245.091 151.394 238.545 147.636C232.03 143.879 226.879 138.439 223.091 131.318C219.333 124.197 217.455 115.576 217.455 105.455C217.455 95.303 219.364 86.6667 223.182 79.5455C227 72.4242 232.182 67 238.727 63.2727C245.273 59.5151 252.636 57.6364 260.818 57.6364C266.212 57.6364 271.212 58.3939 275.818 59.9091C280.455 61.4242 284.561 63.6364 288.136 66.5454C291.712 69.4242 294.621 72.9545 296.864 77.1364C299.136 81.3182 300.591 86.1061 301.227 91.5ZM334.341 111.636V152H314.977V58.9091H333.795V94.5H334.614C336.189 90.3788 338.735 87.1515 342.25 84.8182C345.765 82.4545 350.174 81.2727 355.477 81.2727C360.326 81.2727 364.553 82.3333 368.159 84.4545C371.795 86.5455 374.614 89.5606 376.614 93.5C378.644 97.4091 379.644 102.091 379.614 107.545V152H360.25V111C360.28 106.697 359.189 103.348 356.977 100.955C354.795 98.5606 351.735 97.3636 347.795 97.3636C345.159 97.3636 342.826 97.9242 340.795 99.0455C338.795 100.167 337.22 101.803 336.068 103.955C334.947 106.076 334.371 108.636 334.341 111.636ZM426.67 153.364C419.489 153.364 413.307 151.909 408.125 149C402.973 146.061 399.004 141.909 396.216 136.545C393.428 131.152 392.034 124.773 392.034 117.409C392.034 110.227 393.428 103.924 396.216 98.5C399.004 93.0758 402.928 88.8485 407.989 85.8182C413.08 82.7879 419.049 81.2727 425.898 81.2727C430.504 81.2727 434.792 82.0152 438.761 83.5C442.761 84.9545 446.246 87.1515 449.216 90.0909C452.216 93.0303 454.549 96.7273 456.216 101.182C457.883 105.606 458.716 110.788 458.716 116.727V122.045H399.761V110.045H440.489C440.489 107.258 439.883 104.788 438.67 102.636C437.458 100.485 435.777 98.803 433.625 97.5909C431.504 96.3485 429.034 95.7273 426.216 95.7273C423.277 95.7273 420.67 96.4091 418.398 97.7727C416.155 99.1061 414.398 100.909 413.125 103.182C411.852 105.424 411.201 107.924 411.17 110.682V122.091C411.17 125.545 411.807 128.53 413.08 131.045C414.383 133.561 416.216 135.5 418.58 136.864C420.943 138.227 423.746 138.909 426.989 138.909C429.14 138.909 431.11 138.606 432.898 138C434.686 137.394 436.216 136.485 437.489 135.273C438.761 134.061 439.731 132.576 440.398 130.818L458.307 132C457.398 136.303 455.534 140.061 452.716 143.273C449.928 146.455 446.322 148.939 441.898 150.727C437.504 152.485 432.428 153.364 426.67 153.364ZM502.898 153.364C495.746 153.364 489.595 151.848 484.443 148.818C479.322 145.758 475.383 141.515 472.625 136.091C469.898 130.667 468.534 124.424 468.534 117.364C468.534 110.212 469.913 103.939 472.67 98.5455C475.458 93.1212 479.413 88.8939 484.534 85.8636C489.655 82.803 495.746 81.2727 502.807 81.2727C508.898 81.2727 514.231 82.3788 518.807 84.5909C523.383 86.803 527.004 89.9091 529.67 93.9091C532.337 97.9091 533.807 102.606 534.08 108H515.807C515.292 104.515 513.928 101.712 511.716 99.5909C509.534 97.4394 506.67 96.3636 503.125 96.3636C500.125 96.3636 497.504 97.1818 495.261 98.8182C493.049 100.424 491.322 102.773 490.08 105.864C488.837 108.955 488.216 112.697 488.216 117.091C488.216 121.545 488.822 125.333 490.034 128.455C491.277 131.576 493.019 133.955 495.261 135.591C497.504 137.227 500.125 138.045 503.125 138.045C505.337 138.045 507.322 137.591 509.08 136.682C510.867 135.773 512.337 134.455 513.489 132.727C514.67 130.97 515.443 128.864 515.807 126.409H534.08C533.777 131.742 532.322 136.439 529.716 140.5C527.14 144.53 523.58 147.682 519.034 149.955C514.489 152.227 509.11 153.364 502.898 153.364ZM564.023 131.909L564.068 108.682H566.886L589.25 82.1818H611.477L581.432 117.273H576.841L564.023 131.909ZM546.477 152V58.9091H565.841V152H546.477ZM590.114 152L569.568 121.591L582.477 107.909L612.795 152H590.114ZM658.523 82.1818V96.7273H615.432V82.1818H658.523ZM625.295 152V77.1364C625.295 72.0758 626.28 67.8788 628.25 64.5454C630.25 61.2121 632.977 58.7121 636.432 57.0454C639.886 55.3788 643.811 54.5454 648.205 54.5454C651.174 54.5454 653.886 54.7727 656.341 55.2273C658.826 55.6818 660.674 56.0909 661.886 56.4545L658.432 71C657.674 70.7576 656.735 70.5303 655.614 70.3182C654.523 70.1061 653.402 70 652.25 70C649.402 70 647.417 70.6667 646.295 72C645.174 73.303 644.614 75.1364 644.614 77.5V152H625.295ZM715.125 122.273V82.1818H734.489V152H715.898V139.318H715.17C713.595 143.409 710.973 146.697 707.307 149.182C703.67 151.667 699.231 152.909 693.989 152.909C689.322 152.909 685.216 151.848 681.67 149.727C678.125 147.606 675.352 144.591 673.352 140.682C671.383 136.773 670.383 132.091 670.352 126.636V82.1818H689.716V123.182C689.746 127.303 690.852 130.561 693.034 132.955C695.216 135.348 698.14 136.545 701.807 136.545C704.14 136.545 706.322 136.015 708.352 134.955C710.383 133.864 712.019 132.258 713.261 130.136C714.534 128.015 715.155 125.394 715.125 122.273Z" fill="black"/>
<path d="M301.227 91.5V92.5H302.352L302.22 91.3828L301.227 91.5ZM281.318 91.5L280.328 91.6398L280.449 92.5H281.318V91.5ZM279.091 84.6364L278.216 85.1198L278.219 85.1254L279.091 84.6364ZM274.773 79.4545L274.143 80.2315L274.143 80.2315L274.773 79.4545ZM268.682 76.1818L268.366 77.1305L268.369 77.1317L268.682 76.1818ZM248.682 78.6364L249.233 79.4706L249.238 79.4673L248.682 78.6364ZM240.364 89L241.28 89.3999L241.281 89.3976L240.364 89ZM240.364 122.182L239.447 122.582L239.449 122.587L240.364 122.182ZM248.727 132.409L248.186 133.25L248.727 132.409ZM268.455 134.818L268.161 133.862L268.158 133.863L268.455 134.818ZM274.5 131.773L275.104 132.569L275.113 132.563L274.5 131.773ZM278.864 126.818L278.01 126.298L278.004 126.308L278.864 126.818ZM281.318 120.182L281.323 119.182L280.485 119.178L280.335 120.002L281.318 120.182ZM301.227 120.273L302.22 120.392L302.354 119.278L301.232 119.273L301.227 120.273ZM297.364 132.636L296.476 132.176L296.475 132.178L297.364 132.636ZM289.136 143.227L289.806 143.97L289.807 143.969L289.136 143.227ZM276.864 150.591L277.217 151.526L277.221 151.525L276.864 150.591ZM238.545 147.636L238.046 148.503L238.048 148.504L238.545 147.636ZM223.091 131.318L222.206 131.785L222.208 131.788L223.091 131.318ZM223.182 79.5455L224.063 80.018L223.182 79.5455ZM238.727 63.2727L239.222 64.1417L239.225 64.14L238.727 63.2727ZM275.818 59.9091L275.506 60.859L275.508 60.8596L275.818 59.9091ZM288.136 66.5454L287.505 67.3212L287.509 67.3244L288.136 66.5454ZM296.864 77.1364L295.982 77.6089L295.985 77.6139L296.864 77.1364ZM301.227 91.5V90.5H281.318V91.5V92.5H301.227V91.5ZM281.318 91.5L282.308 91.3602C281.93 88.6781 281.153 86.269 279.963 84.1474L279.091 84.6364L278.219 85.1254C279.272 87.0037 279.979 89.1704 280.328 91.6398L281.318 91.5ZM279.091 84.6364L279.966 84.1529C278.784 82.0128 277.263 80.185 275.402 78.6776L274.773 79.4545L274.143 80.2315C275.798 81.5726 277.155 83.1993 278.216 85.1198L279.091 84.6364ZM274.773 79.4545L275.402 78.6776C273.544 77.1716 271.404 76.0247 268.994 75.2319L268.682 76.1818L268.369 77.1317C270.565 77.8541 272.486 78.889 274.143 80.2315L274.773 79.4545ZM268.682 76.1818L268.998 75.2331C266.613 74.438 264.035 74.0455 261.273 74.0455V75.0455V76.0455C263.844 76.0455 266.206 76.4105 268.366 77.1305L268.682 76.1818ZM261.273 75.0455V74.0455C256.281 74.0455 251.885 75.2883 248.125 77.8054L248.682 78.6364L249.238 79.4673C252.63 77.1965 256.628 76.0455 261.273 76.0455V75.0455ZM248.682 78.6364L248.13 77.8021C244.369 80.2886 241.481 83.9074 239.446 88.6024L240.364 89L241.281 89.3976C243.186 85.0017 245.843 81.7114 249.233 79.4706L248.682 78.6364ZM240.364 89L239.447 88.6002C237.408 93.274 236.409 98.9031 236.409 105.455H237.409H238.409C238.409 99.0969 239.38 93.7563 241.28 89.3998L240.364 89ZM237.409 105.455H236.409C236.409 112.183 237.407 117.905 239.447 122.582L240.364 122.182L241.28 121.782C239.381 117.429 238.409 111.998 238.409 105.455H237.409ZM240.364 122.182L239.449 122.587C241.515 127.251 244.421 130.825 248.186 133.25L248.727 132.409L249.269 131.568C245.882 129.387 243.212 126.143 241.278 121.777L240.364 122.182ZM248.727 132.409L248.186 133.25C251.94 135.668 256.268 136.864 261.136 136.864V135.864V134.864C256.611 134.864 252.666 133.757 249.269 131.568L248.727 132.409ZM261.136 135.864V136.864C263.861 136.864 266.402 136.503 268.751 135.773L268.455 134.818L268.158 133.863C266.022 134.527 263.684 134.864 261.136 134.864V135.864ZM268.455 134.818L268.748 135.774C271.124 135.046 273.246 133.979 275.104 132.569L274.5 131.773L273.896 130.976C272.239 132.233 270.331 133.197 268.161 133.862L268.455 134.818ZM274.5 131.773L275.113 132.563C276.971 131.121 278.509 129.374 279.723 127.329L278.864 126.818L278.004 126.308C276.915 128.141 275.544 129.697 273.887 130.983L274.5 131.773ZM278.864 126.818L279.718 127.339C280.97 125.283 281.828 122.954 282.302 120.362L281.318 120.182L280.335 120.002C279.9 122.38 279.121 124.474 278.01 126.298L278.864 126.818ZM281.318 120.182L281.314 121.182L301.223 121.273L301.227 120.273L301.232 119.273L281.323 119.182L281.318 120.182ZM301.227 120.273L300.234 120.153C299.734 124.302 298.484 128.308 296.476 132.176L297.364 132.636L298.251 133.097C300.365 129.025 301.69 124.789 302.22 120.392L301.227 120.273ZM297.364 132.636L296.475 132.178C294.502 136.005 291.836 139.441 288.466 142.485L289.136 143.227L289.807 143.969C293.346 140.771 296.164 137.146 298.253 133.094L297.364 132.636ZM289.136 143.227L288.466 142.485C285.143 145.485 281.161 147.878 276.507 149.657L276.864 150.591L277.221 151.525C282.081 149.667 286.281 147.151 289.806 143.97L289.136 143.227ZM276.864 150.591L276.51 149.656C271.914 151.394 266.688 152.273 260.818 152.273V153.273V154.273C266.887 154.273 272.359 153.364 277.217 151.526L276.864 150.591ZM260.818 153.273V152.273C252.672 152.273 245.422 150.431 239.043 146.769L238.545 147.636L238.048 148.504C244.759 152.357 252.358 154.273 260.818 154.273V153.273ZM238.545 147.636L239.045 146.77C232.704 143.113 227.68 137.817 223.974 130.849L223.091 131.318L222.208 131.788C226.077 139.062 231.356 144.645 238.046 148.503L238.545 147.636ZM223.091 131.318L223.975 130.852C220.311 123.906 218.455 115.454 218.455 105.455H217.455H216.455C216.455 115.697 218.356 124.488 222.206 131.785L223.091 131.318ZM217.455 105.455H218.455C218.455 95.4265 220.34 86.9613 224.063 80.018L223.182 79.5455L222.301 79.0729C218.387 86.372 216.455 95.1796 216.455 105.455H217.455ZM223.182 79.5455L224.063 80.018C227.799 73.0501 232.852 67.769 239.222 64.1417L238.727 63.2727L238.232 62.4037C231.511 66.231 226.201 71.7984 222.301 79.0729L223.182 79.5455ZM238.727 63.2727L239.225 64.14C245.606 60.4766 252.796 58.6364 260.818 58.6364V57.6364V56.6364C252.477 56.6364 244.939 58.5537 238.229 62.4055L238.727 63.2727ZM260.818 57.6364V58.6364C266.118 58.6364 271.011 59.3805 275.506 60.859L275.818 59.9091L276.131 58.9592C271.413 57.4073 266.306 56.6364 260.818 56.6364V57.6364ZM275.818 59.9091L275.508 60.8596C280.034 62.3389 284.03 64.4939 287.505 67.3212L288.136 66.5454L288.767 65.7697C285.091 62.7788 280.875 60.5096 276.129 58.9586L275.818 59.9091ZM288.136 66.5454L287.509 67.3244C290.977 70.1163 293.801 73.5412 295.982 77.6089L296.864 77.1364L297.745 76.6638C295.441 72.3679 292.447 68.7322 288.763 65.7665L288.136 66.5454ZM296.864 77.1364L295.985 77.6139C298.189 81.6693 299.611 86.3318 300.234 91.6172L301.227 91.5L302.22 91.3828C301.571 85.8803 300.084 80.967 297.742 76.6588L296.864 77.1364ZM334.341 111.636L333.341 111.626V111.636H334.341ZM334.341 152V153H335.341V152H334.341ZM314.977 152H313.977V153H314.977V152ZM314.977 58.9091V57.9091H313.977V58.9091H314.977ZM333.795 58.9091H334.795V57.9091H333.795V58.9091ZM333.795 94.5H332.795V95.5H333.795V94.5ZM334.614 94.5V95.5H335.302L335.548 94.8571L334.614 94.5ZM342.25 84.8182L342.803 85.6513L342.808 85.648L342.25 84.8182ZM368.159 84.4545L367.652 85.3165L367.661 85.3214L368.159 84.4545ZM376.614 93.5L375.722 93.9527L375.726 93.9609L376.614 93.5ZM379.614 107.545L378.614 107.54V107.545H379.614ZM379.614 152V153H380.614V152H379.614ZM360.25 152H359.25V153H360.25V152ZM360.25 111L359.25 110.993V111H360.25ZM356.977 100.955L356.238 101.628L356.243 101.633L356.977 100.955ZM340.795 99.0455L340.312 98.17L340.306 98.1732L340.795 99.0455ZM336.068 103.955L335.187 103.483L335.184 103.487L336.068 103.955ZM334.341 111.636H333.341V152H334.341H335.341V111.636H334.341ZM334.341 152V151H314.977V152V153H334.341V152ZM314.977 152H315.977V58.9091H314.977H313.977V152H314.977ZM314.977 58.9091V59.9091H333.795V58.9091V57.9091H314.977V58.9091ZM333.795 58.9091H332.795V94.5H333.795H334.795V58.9091H333.795ZM333.795 94.5V95.5H334.614V94.5V93.5H333.795V94.5ZM334.614 94.5L335.548 94.8571C337.053 90.9209 339.47 87.864 342.803 85.6513L342.25 84.8182L341.697 83.985C338 86.439 335.326 89.8367 333.68 94.1429L334.614 94.5ZM342.25 84.8182L342.808 85.648C346.121 83.4203 350.323 82.2727 355.477 82.2727V81.2727V80.2727C350.026 80.2727 345.409 81.4887 341.692 83.9883L342.25 84.8182ZM355.477 81.2727V82.2727C360.176 82.2727 364.223 83.2992 367.652 85.3165L368.159 84.4545L368.666 83.5926C364.883 81.3675 360.475 80.2727 355.477 80.2727V81.2727ZM368.159 84.4545L367.661 85.3214C371.119 87.3102 373.805 90.1769 375.722 93.9527L376.614 93.5L377.505 93.0473C375.422 88.9443 372.472 85.7807 368.658 83.5876L368.159 84.4545ZM376.614 93.5L375.726 93.9609C377.666 97.6956 378.643 102.21 378.614 107.54L379.614 107.545L380.614 107.551C380.645 101.972 379.622 97.1226 377.501 93.0391L376.614 93.5ZM379.614 107.545H378.614V152H379.614H380.614V107.545H379.614ZM379.614 152V151H360.25V152V153H379.614V152ZM360.25 152H361.25V111H360.25H359.25V152H360.25ZM360.25 111L361.25 111.007C361.281 106.534 360.146 102.91 357.712 100.276L356.977 100.955L356.243 101.633C358.233 103.787 359.279 106.86 359.25 110.993L360.25 111ZM356.977 100.955L357.716 100.281C355.305 97.635 351.95 96.3636 347.795 96.3636V97.3636V98.3636C351.519 98.3636 354.286 99.4862 356.238 101.628L356.977 100.955ZM347.795 97.3636V96.3636C345.013 96.3636 342.51 96.9565 340.312 98.1701L340.795 99.0455L341.279 99.9208C343.142 98.892 345.305 98.3636 347.795 98.3636V97.3636ZM340.795 99.0455L340.306 98.1732C338.129 99.3938 336.422 101.174 335.187 103.483L336.068 103.955L336.95 104.426C338.017 102.432 339.462 100.94 341.284 99.9177L340.795 99.0455ZM336.068 103.955L335.184 103.487C333.972 105.78 333.372 108.506 333.341 111.626L334.341 111.636L335.341 111.646C335.37 108.767 335.922 106.371 336.952 104.422L336.068 103.955ZM408.125 149L407.629 149.869L407.635 149.872L408.125 149ZM396.216 136.545L395.328 137.005L395.329 137.007L396.216 136.545ZM396.216 98.5L395.327 98.0429L396.216 98.5ZM407.989 85.8182L407.477 84.9589L407.475 84.9602L407.989 85.8182ZM438.761 83.5L438.411 84.4367L438.42 84.4398L438.761 83.5ZM449.216 90.0909L448.512 90.8016L448.516 90.8052L449.216 90.0909ZM456.216 101.182L455.279 101.532L455.28 101.534L456.216 101.182ZM458.716 122.045V123.045H459.716V122.045H458.716ZM399.761 122.045H398.761V123.045H399.761V122.045ZM399.761 110.045V109.045H398.761V110.045H399.761ZM440.489 110.045V111.045H441.489V110.045H440.489ZM438.67 102.636L437.799 103.127L438.67 102.636ZM433.625 97.5909L433.12 98.4538L433.127 98.458L433.134 98.4622L433.625 97.5909ZM418.398 97.7727L418.909 98.6323L418.912 98.6302L418.398 97.7727ZM413.125 103.182L413.995 103.675L413.998 103.67L413.125 103.182ZM411.17 110.682L410.17 110.671V110.682H411.17ZM413.08 131.045L412.187 131.497L412.192 131.505L413.08 131.045ZM432.898 138L432.577 137.053L432.898 138ZM437.489 135.273L436.799 134.549L437.489 135.273ZM440.398 130.818L440.464 129.82L439.725 129.772L439.463 130.464L440.398 130.818ZM458.307 132L459.285 132.207L459.524 131.078L458.373 131.002L458.307 132ZM452.716 143.273L451.964 142.613L451.964 142.614L452.716 143.273ZM441.898 150.727L442.269 151.656L442.272 151.654L441.898 150.727ZM426.67 153.364V152.364C419.624 152.364 413.619 150.937 408.615 148.128L408.125 149L407.635 149.872C412.995 152.881 419.353 154.364 426.67 154.364V153.364ZM408.125 149L408.621 148.131C403.639 145.289 399.804 141.281 397.103 136.084L396.216 136.545L395.329 137.007C398.203 142.537 402.308 146.832 407.629 149.869L408.125 149ZM396.216 136.545L397.104 136.086C394.404 130.861 393.034 124.647 393.034 117.409H392.034H391.034C391.034 124.899 392.452 131.442 395.328 137.005L396.216 136.545ZM392.034 117.409H393.034C393.034 110.358 394.402 104.217 397.105 98.9571L396.216 98.5L395.327 98.0429C392.454 103.632 391.034 110.096 391.034 117.409H392.034ZM396.216 98.5L397.105 98.9571C399.811 93.693 403.608 89.6071 408.502 86.6761L407.989 85.8182L407.475 84.9602C402.248 88.0898 398.197 92.4585 395.327 98.0429L396.216 98.5ZM407.989 85.8182L408.5 86.6775C413.414 83.7528 419.201 82.2727 425.898 82.2727V81.2727V80.2727C418.898 80.2727 412.746 81.8229 407.477 84.9589L407.989 85.8182ZM425.898 81.2727V82.2727C430.395 82.2727 434.563 82.9972 438.411 84.4366L438.761 83.5L439.112 82.5634C435.021 81.0331 430.613 80.2727 425.898 80.2727V81.2727ZM438.761 83.5L438.42 84.4398C442.287 85.8459 445.647 87.9657 448.512 90.8016L449.216 90.0909L449.919 89.3802C446.845 86.3373 443.236 84.0631 439.103 82.5602L438.761 83.5ZM449.216 90.0909L448.516 90.8052C451.398 93.6293 453.657 97.1966 455.279 101.532L456.216 101.182L457.152 100.831C455.441 96.2579 453.033 92.4313 449.916 89.3766L449.216 90.0909ZM456.216 101.182L455.28 101.534C456.895 105.821 457.716 110.879 457.716 116.727H458.716H459.716C459.716 110.697 458.87 105.391 457.152 100.829L456.216 101.182ZM458.716 116.727H457.716V122.045H458.716H459.716V116.727H458.716ZM458.716 122.045V121.045H399.761V122.045V123.045H458.716V122.045ZM399.761 122.045H400.761V110.045H399.761H398.761V122.045H399.761ZM399.761 110.045V111.045H440.489V110.045V109.045H399.761V110.045ZM440.489 110.045H441.489C441.489 107.108 440.849 104.465 439.542 102.146L438.67 102.636L437.799 103.127C438.917 105.11 439.489 107.407 439.489 110.045H440.489ZM438.67 102.636L439.542 102.146C438.24 99.8348 436.427 98.0215 434.116 96.7197L433.625 97.5909L433.134 98.4622C435.127 99.5846 436.677 101.135 437.799 103.127L438.67 102.636ZM433.625 97.5909L434.13 96.728C431.835 95.3833 429.185 94.7273 426.216 94.7273V95.7273V96.7273C428.883 96.7273 431.173 97.3136 433.12 98.4538L433.625 97.5909ZM426.216 95.7273V94.7273C423.116 94.7273 420.328 95.4484 417.883 96.9152L418.398 97.7727L418.912 98.6302C421.013 97.3698 423.437 96.7273 426.216 96.7273V95.7273ZM418.398 97.7727L417.887 96.9132C415.494 98.3361 413.611 100.267 412.252 102.693L413.125 103.182L413.998 103.67C415.184 101.551 416.817 99.876 418.909 98.6323L418.398 97.7727ZM413.125 103.182L412.255 102.688C410.893 105.088 410.203 107.756 410.171 110.671L411.17 110.682L412.17 110.693C412.199 108.092 412.811 105.76 413.995 103.675L413.125 103.182ZM411.17 110.682H410.17V122.091H411.17H412.17V110.682H411.17ZM411.17 122.091H410.17C410.17 125.668 410.83 128.814 412.187 131.497L413.08 131.045L413.972 130.594C412.784 128.247 412.17 125.423 412.17 122.091H411.17ZM413.08 131.045L412.192 131.505C413.579 134.184 415.544 136.267 418.08 137.73L418.58 136.864L419.079 135.997C416.888 134.733 415.186 132.938 413.967 130.585L413.08 131.045ZM418.58 136.864L418.08 137.73C420.622 139.196 423.604 139.909 426.989 139.909V138.909V137.909C423.888 137.909 421.265 137.258 419.079 135.997L418.58 136.864ZM426.989 138.909V139.909C429.234 139.909 431.314 139.593 433.219 138.947L432.898 138L432.577 137.053C430.906 137.619 429.046 137.909 426.989 137.909V138.909ZM432.898 138L433.219 138.947C435.134 138.298 436.793 137.316 438.178 135.997L437.489 135.273L436.799 134.549C435.639 135.653 434.237 136.49 432.577 137.053L432.898 138ZM437.489 135.273L438.178 135.997C439.567 134.674 440.617 133.06 441.333 131.173L440.398 130.818L439.463 130.464C438.845 132.091 437.956 133.447 436.799 134.549L437.489 135.273ZM440.398 130.818L440.332 131.816L458.241 132.998L458.307 132L458.373 131.002L440.464 129.82L440.398 130.818ZM458.307 132L457.328 131.793C456.454 135.934 454.666 139.534 451.964 142.613L452.716 143.273L453.468 143.932C456.402 140.587 458.342 136.673 459.285 132.207L458.307 132ZM452.716 143.273L451.964 142.614C449.292 145.664 445.821 148.063 441.523 149.8L441.898 150.727L442.272 151.654C446.823 149.815 450.565 147.246 453.468 143.932L452.716 143.273ZM441.898 150.727L441.526 149.799C437.273 151.5 432.328 152.364 426.67 152.364V153.364V154.364C432.528 154.364 437.734 153.47 442.269 151.656L441.898 150.727ZM484.443 148.818L483.93 149.677L483.936 149.68L484.443 148.818ZM472.625 136.091L471.732 136.54L471.734 136.544L472.625 136.091ZM472.67 98.5455L471.781 98.0883L471.78 98.0903L472.67 98.5455ZM484.534 85.8636L485.043 86.7243L485.047 86.722L484.534 85.8636ZM518.807 84.5909L519.242 83.6906L518.807 84.5909ZM529.67 93.9091L528.838 94.4638L529.67 93.9091ZM534.08 108V109H535.131L535.078 107.95L534.08 108ZM515.807 108L514.818 108.146L514.944 109H515.807V108ZM511.716 99.5909L511.014 100.303L511.024 100.313L511.716 99.5909ZM495.261 98.8182L495.849 99.6274L495.851 99.626L495.261 98.8182ZM490.034 128.455L489.102 128.817L489.105 128.824L490.034 128.455ZM495.261 135.591L495.851 134.783L495.261 135.591ZM509.08 136.682L508.626 135.79L508.62 135.794L509.08 136.682ZM513.489 132.727L512.659 132.169L512.657 132.173L513.489 132.727ZM515.807 126.409V125.409H514.944L514.818 126.263L515.807 126.409ZM534.08 126.409L535.078 126.466L535.138 125.409H534.08V126.409ZM529.716 140.5L528.874 139.96L528.873 139.961L529.716 140.5ZM519.034 149.955L518.587 149.06L519.034 149.955ZM502.898 153.364V152.364C495.889 152.364 489.92 150.88 484.95 147.956L484.443 148.818L483.936 149.68C489.269 152.817 495.603 154.364 502.898 154.364V153.364ZM484.443 148.818L484.956 147.96C480 144.998 476.19 140.897 473.516 135.638L472.625 136.091L471.734 136.544C474.575 142.133 478.644 146.517 483.93 149.677L484.443 148.818ZM472.625 136.091L473.518 135.642C470.872 130.378 469.534 124.294 469.534 117.364H468.534H467.534C467.534 124.555 468.924 130.955 471.732 136.54L472.625 136.091ZM468.534 117.364H469.534C469.534 110.342 470.887 104.23 473.561 99.0006L472.67 98.5455L471.78 98.0903C468.939 103.648 467.534 110.082 467.534 117.364H468.534ZM472.67 98.5455L473.56 99.0026C476.264 93.7416 480.089 89.6561 485.043 86.7243L484.534 85.8636L484.025 85.003C478.737 88.1318 474.653 92.5009 471.781 98.0883L472.67 98.5455ZM484.534 85.8636L485.047 86.722C489.987 83.7699 495.893 82.2727 502.807 82.2727V81.2727V80.2727C495.599 80.2727 489.324 81.8362 484.021 85.0052L484.534 85.8636ZM502.807 81.2727V82.2727C508.777 82.2727 513.956 83.3565 518.372 85.4912L518.807 84.5909L519.242 83.6906C514.506 81.4011 509.019 80.2727 502.807 80.2727V81.2727ZM518.807 84.5909L518.372 85.4912C522.796 87.6302 526.277 90.6209 528.838 94.4638L529.67 93.9091L530.503 93.3544C527.731 89.1972 523.969 85.9758 519.242 83.6906L518.807 84.5909ZM529.67 93.9091L528.838 94.4638C531.393 98.2959 532.816 102.814 533.081 108.05L534.08 108L535.078 107.95C534.798 102.398 533.281 97.5222 530.503 93.3544L529.67 93.9091ZM534.08 108V107H515.807V108V109H534.08V108ZM515.807 108L516.796 107.854C516.254 104.184 514.804 101.166 512.408 98.8691L511.716 99.5909L511.024 100.313C513.052 102.258 514.33 104.847 514.818 108.146L515.807 108ZM511.716 99.5909L512.418 98.8789C510.02 96.5137 506.889 95.3636 503.125 95.3636V96.3636V97.3636C506.452 97.3636 509.049 98.3651 511.014 100.303L511.716 99.5909ZM503.125 96.3636V95.3636C499.931 95.3636 497.1 96.2389 494.672 98.0104L495.261 98.8182L495.851 99.626C497.908 98.1248 500.319 97.3636 503.125 97.3636V96.3636ZM495.261 98.8182L494.674 98.009C492.279 99.7475 490.449 102.264 489.152 105.491L490.08 105.864L491.007 106.237C492.195 103.282 493.819 101.101 495.849 99.6274L495.261 98.8182ZM490.08 105.864L489.152 105.491C487.849 108.731 487.216 112.608 487.216 117.091H488.216H489.216C489.216 112.786 489.825 109.178 491.007 106.237L490.08 105.864ZM488.216 117.091H487.216C487.216 121.631 487.833 125.549 489.102 128.817L490.034 128.455L490.966 128.093C489.811 125.118 489.216 121.46 489.216 117.091H488.216ZM490.034 128.455L489.105 128.824C490.402 132.084 492.248 134.63 494.672 136.399L495.261 135.591L495.851 134.783C493.79 133.279 492.151 131.068 490.963 128.085L490.034 128.455ZM495.261 135.591L494.672 136.399C497.1 138.17 499.931 139.045 503.125 139.045V138.045V137.045C500.319 137.045 497.908 136.284 495.851 134.783L495.261 135.591ZM503.125 138.045V139.045C505.478 139.045 507.623 138.561 509.539 137.57L509.08 136.682L508.62 135.794C507.021 136.621 505.196 137.045 503.125 137.045V138.045ZM509.08 136.682L509.533 137.573C511.479 136.583 513.077 135.147 514.321 133.282L513.489 132.727L512.657 132.173C511.597 133.762 510.256 134.962 508.626 135.79L509.08 136.682ZM513.489 132.727L514.318 133.285C515.596 131.385 516.414 129.132 516.796 126.556L515.807 126.409L514.818 126.263C514.472 128.595 513.744 130.555 512.659 132.169L513.489 132.727ZM515.807 126.409V127.409H534.08V126.409V125.409H515.807V126.409ZM534.08 126.409L533.081 126.352C532.787 131.533 531.378 136.059 528.874 139.96L529.716 140.5L530.557 141.04C533.266 136.819 534.766 131.952 535.078 126.466L534.08 126.409ZM529.716 140.5L528.873 139.961C526.401 143.83 522.981 146.863 518.587 149.06L519.034 149.955L519.481 150.849C524.178 148.501 527.879 145.231 530.559 141.039L529.716 140.5ZM519.034 149.955L518.587 149.06C514.208 151.25 508.989 152.364 502.898 152.364V153.364V154.364C509.231 154.364 514.77 153.205 519.481 150.849L519.034 149.955ZM564.023 131.909L563.023 131.907L563.018 134.575L564.775 132.568L564.023 131.909ZM564.068 108.682V107.682H563.07L563.068 108.68L564.068 108.682ZM566.886 108.682V109.682H567.351L567.651 109.327L566.886 108.682ZM589.25 82.1818V81.1818H588.785L588.486 81.5369L589.25 82.1818ZM611.477 82.1818L612.237 82.8322L613.65 81.1818H611.477V82.1818ZM581.432 117.273V118.273H581.892L582.191 117.923L581.432 117.273ZM576.841 117.273V116.273H576.387L576.089 116.614L576.841 117.273ZM546.477 152H545.477V153H546.477V152ZM546.477 58.9091V57.9091H545.477V58.9091H546.477ZM565.841 58.9091H566.841V57.9091H565.841V58.9091ZM565.841 152V153H566.841V152H565.841ZM590.114 152L589.285 152.56L589.582 153H590.114V152ZM569.568 121.591L568.841 120.905L568.291 121.487L568.74 122.151L569.568 121.591ZM582.477 107.909L583.301 107.342L582.6 106.322L581.75 107.223L582.477 107.909ZM612.795 152V153H614.697L613.619 151.433L612.795 152ZM564.023 131.909L565.023 131.911L565.068 108.684L564.068 108.682L563.068 108.68L563.023 131.907L564.023 131.909ZM564.068 108.682V109.682H566.886V108.682V107.682H564.068V108.682ZM566.886 108.682L567.651 109.327L590.014 82.8268L589.25 82.1818L588.486 81.5369L566.122 108.037L566.886 108.682ZM589.25 82.1818V83.1818H611.477V82.1818V81.1818H589.25V82.1818ZM611.477 82.1818L610.718 81.5314L580.672 116.622L581.432 117.273L582.191 117.923L612.237 82.8322L611.477 82.1818ZM581.432 117.273V116.273H576.841V117.273V118.273H581.432V117.273ZM576.841 117.273L576.089 116.614L563.27 131.25L564.023 131.909L564.775 132.568L577.593 117.932L576.841 117.273ZM546.477 152H547.477V58.9091H546.477H545.477V152H546.477ZM546.477 58.9091V59.9091H565.841V58.9091V57.9091H546.477V58.9091ZM565.841 58.9091H564.841V152H565.841H566.841V58.9091H565.841ZM565.841 152V151H546.477V152V153H565.841V152ZM590.114 152L590.942 151.44L570.397 121.031L569.568 121.591L568.74 122.151L589.285 152.56L590.114 152ZM569.568 121.591L570.296 122.277L583.205 108.595L582.477 107.909L581.75 107.223L568.841 120.905L569.568 121.591ZM582.477 107.909L581.653 108.476L611.971 152.567L612.795 152L613.619 151.433L583.301 107.342L582.477 107.909ZM612.795 152V151H590.114V152V153H612.795V152ZM658.523 82.1818H659.523V81.1818H658.523V82.1818ZM658.523 96.7273V97.7273H659.523V96.7273H658.523ZM615.432 96.7273H614.432V97.7273H615.432V96.7273ZM615.432 82.1818V81.1818H614.432V82.1818H615.432ZM625.295 152H624.295V153H625.295V152ZM628.25 64.5454L627.392 64.0309L627.389 64.0367L628.25 64.5454ZM636.432 57.0454L635.997 56.1448L636.432 57.0454ZM656.341 55.2273L656.159 56.2106L656.161 56.2109L656.341 55.2273ZM661.886 56.4545L662.859 56.6856L663.077 55.7678L662.174 55.4967L661.886 56.4545ZM658.432 71L658.127 71.9524L659.155 72.2815L659.405 71.2311L658.432 71ZM655.614 70.3182L655.423 71.2998L655.428 71.3007L655.614 70.3182ZM646.295 72L647.054 72.6523L647.061 72.6436L646.295 72ZM644.614 152V153H645.614V152H644.614ZM658.523 82.1818H657.523V96.7273H658.523H659.523V82.1818H658.523ZM658.523 96.7273V95.7273H615.432V96.7273V97.7273H658.523V96.7273ZM615.432 96.7273H616.432V82.1818H615.432H614.432V96.7273H615.432ZM615.432 82.1818V83.1818H658.523V82.1818V81.1818H615.432V82.1818ZM625.295 152H626.295V77.1364H625.295H624.295V152H625.295ZM625.295 77.1364H626.295C626.295 72.2011 627.256 68.193 629.111 65.0542L628.25 64.5454L627.389 64.0367C625.304 67.5645 624.295 71.9504 624.295 77.1364H625.295ZM628.25 64.5454L629.107 65.0599C631.009 61.8914 633.59 59.5268 636.866 57.9461L636.432 57.0454L635.997 56.1448C632.365 57.8974 629.491 60.5328 627.393 64.031L628.25 64.5454ZM636.432 57.0454L636.866 57.9461C640.167 56.3537 643.939 55.5454 648.205 55.5454V54.5454V53.5454C643.682 53.5454 639.606 54.4038 635.997 56.1448L636.432 57.0454ZM648.205 54.5454V55.5454C651.124 55.5454 653.774 55.769 656.159 56.2106L656.341 55.2273L656.523 54.244C653.998 53.7765 651.224 53.5454 648.205 53.5454V54.5454ZM656.341 55.2273L656.161 56.2109C658.638 56.664 660.442 57.0652 661.599 57.4124L661.886 56.4545L662.174 55.4967C660.907 55.1166 659.014 54.6996 656.521 54.2436L656.341 55.2273ZM661.886 56.4545L660.913 56.2235L657.459 70.7689L658.432 71L659.405 71.2311L662.859 56.6856L661.886 56.4545ZM658.432 71L658.737 70.0476C657.927 69.7886 656.945 69.5524 655.8 69.3356L655.614 70.3182L655.428 71.3007C656.524 71.5082 657.421 71.7265 658.127 71.9524L658.432 71ZM655.614 70.3182L655.805 69.3366C654.648 69.1118 653.463 69 652.25 69V70V71C653.34 71 654.397 71.1003 655.423 71.2998L655.614 70.3182ZM652.25 70V69C649.29 69 646.934 69.6866 645.53 71.3564L646.295 72L647.061 72.6436C647.899 71.6467 649.513 71 652.25 71V70ZM646.295 72L645.537 71.3478C644.21 72.8903 643.614 74.9867 643.614 77.5H644.614H645.614C645.614 75.286 646.138 73.7158 647.053 72.6522L646.295 72ZM644.614 77.5H643.614V152H644.614H645.614V77.5H644.614ZM644.614 152V151H625.295V152V153H644.614V152ZM715.125 122.273H714.125L714.125 122.282L715.125 122.273ZM715.125 82.1818V81.1818H714.125V82.1818H715.125ZM734.489 82.1818H735.489V81.1818H734.489V82.1818ZM734.489 152V153H735.489V152H734.489ZM715.898 152H714.898V153H715.898V152ZM715.898 139.318H716.898V138.318H715.898V139.318ZM715.17 139.318V138.318H714.484L714.237 138.959L715.17 139.318ZM707.307 149.182L706.746 148.354L706.743 148.356L707.307 149.182ZM681.67 149.727L682.184 148.869L681.67 149.727ZM673.352 140.682L672.459 141.132L672.462 141.137L673.352 140.682ZM670.352 126.636H669.352L669.352 126.642L670.352 126.636ZM670.352 82.1818V81.1818H669.352V82.1818H670.352ZM689.716 82.1818H690.716V81.1818H689.716V82.1818ZM689.716 123.182H688.716L688.716 123.189L689.716 123.182ZM693.034 132.955L693.773 132.281L693.034 132.955ZM708.352 134.955L708.815 135.841L708.826 135.835L708.352 134.955ZM713.261 130.136L712.404 129.622L712.398 129.631L713.261 130.136ZM715.125 122.273H716.125V82.1818H715.125H714.125V122.273H715.125ZM715.125 82.1818V83.1818H734.489V82.1818V81.1818H715.125V82.1818ZM734.489 82.1818H733.489V152H734.489H735.489V82.1818H734.489ZM734.489 152V151H715.898V152V153H734.489V152ZM715.898 152H716.898V139.318H715.898H714.898V152H715.898ZM715.898 139.318V138.318H715.17V139.318V140.318H715.898V139.318ZM715.17 139.318L714.237 138.959C712.736 142.857 710.245 145.982 706.746 148.354L707.307 149.182L707.868 150.01C711.702 147.412 714.454 143.961 716.104 139.678L715.17 139.318ZM707.307 149.182L706.743 148.356C703.302 150.707 699.069 151.909 693.989 151.909V152.909V153.909C699.393 153.909 704.039 152.626 707.871 150.007L707.307 149.182ZM693.989 152.909V151.909C689.479 151.909 685.555 150.886 682.184 148.869L681.67 149.727L681.157 150.585C684.877 152.811 689.165 153.909 693.989 153.909V152.909ZM681.67 149.727L682.184 148.869C678.81 146.85 676.163 143.979 674.243 140.226L673.352 140.682L672.462 141.137C674.542 145.202 677.44 148.362 681.157 150.585L681.67 149.727ZM673.352 140.682L674.245 140.232C672.36 136.49 671.382 131.968 671.352 126.631L670.352 126.636L669.352 126.642C669.383 132.214 670.405 137.055 672.459 141.132L673.352 140.682ZM670.352 126.636H671.352V82.1818H670.352H669.352V126.636H670.352ZM670.352 82.1818V83.1818H689.716V82.1818V81.1818H670.352V82.1818ZM689.716 82.1818H688.716V123.182H689.716H690.716V82.1818H689.716ZM689.716 123.182L688.716 123.189C688.748 127.488 689.906 131.006 692.295 133.628L693.034 132.955L693.773 132.281C691.799 130.115 690.745 127.118 690.716 123.174L689.716 123.182ZM693.034 132.955L692.295 133.628C694.692 136.259 697.9 137.545 701.807 137.545V136.545V135.545C698.38 135.545 695.74 134.438 693.773 132.281L693.034 132.955ZM701.807 136.545V137.545C704.298 137.545 706.639 136.978 708.815 135.841L708.352 134.955L707.889 134.068C706.005 135.053 703.982 135.545 701.807 135.545V136.545ZM708.352 134.955L708.826 135.835C711.029 134.652 712.795 132.911 714.124 130.642L713.261 130.136L712.398 129.631C711.242 131.605 709.737 133.076 707.879 134.074L708.352 134.955ZM713.261 130.136L714.119 130.651C715.508 128.335 716.157 125.521 716.125 122.263L715.125 122.273L714.125 122.282C714.154 125.267 713.56 127.695 712.404 129.622L713.261 130.136Z" fill="black" mask="url(#path-2-outside-1_1402_8)"/>
</svg>
